# xmcd CD database file
#
# Track frame offsets:
#	150
#	19203
#	31377
#	51688
#	64694
#	81835
#	97483
#	116319
#	130044
#	147515
#	160675
#	169751
#	179341
#	197653
#	215257
#	230816
#	247181
#
# Disc length: 3546 seconds
#
# Revision: 0
# Processed by: cddbd v1.5.2PL0 Copyright (c) Steve Scherf et al.
# Submitted via: CDex 1.70beta2
#
DISCID=fc0dd811
DTITLE=Various Artist - Country Heat Christmas 3
DYEAR=2008
DGENRE=Country
TTITLE0=Brad Paisley - Santa Looked A Lot Like Daddy
TTITLE1=Brooks and Dunn - Hangin' Round the Mistletoe
TTITLE2=Paul Brandt - Christmas Convoy
TTITLE3=Beverley Mahood - Let it Snow! Let it Snow! Let it Snow!
TTITLE4=Martina McBride - What Child is This
TTITLE5=Kellie Pickler - Santa Baby
TTITLE6=Lonestar - Santa Claus is Comin' to Town
TTITLE7=Patricia Conroy - It's Almost Christmas
TTITLE8=Carolyn Dawn Johnson - I Wouldn't Want Christmas (Any Other Way)
TTITLE9=Diamond Rio - Walking In A Winter Wonderland
TTITLE10=Michelle Wright - I Know Santa's Been Here
TTITLE11=Tracy Lawrence - All Wrapped Up in Christmas
TTITLE12=Montgomery Gentry - Merry Christmas From the Family
TTITLE13=Sara Evans - I'll Be Home For Christmas
TTITLE14=Terri Clark - O Little Town of Bethlehem
TTITLE15=Kenny Chesney - Christmas in DIxie
TTITLE16=Carrie Underwood - Do You Hear What I Hear
EXTD=YEAR: 2008
EXTT0=
EXTT1=
EXTT2=
EXTT3=
EXTT4=
EXTT5=
EXTT6=
EXTT7=
EXTT8=
EXTT9=
EXTT10=
EXTT11=
EXTT12=
EXTT13=
EXTT14=
EXTT15=
EXTT16=
PLAYORDER=
